<svg xmlns="http://www.w3.org/2000/svg" width="32" height="32" viewBox="1 1 30 30"><path fill="#00ac47" d="M4.7434,22.505A12.9769,12.9769,0,0,0,14.88,28.949l5.8848-10.1927L16,16.0058,11.2385,18.755l-1.5875-2.75L8.4885,13.9919,5.3553,8.5649A12.9894,12.9894,0,0,0,4.7434,22.505Z"/><path fill="#ea4435" d="M16,3.0072A12.9769,12.9769,0,0,0,5.3507,8.5636l5.8848,10.1927L16,16.0057V10.5072H27.766A12.99,12.99,0,0,0,16,3.0072Z"/><path fill="#ffba00" d="M27.2557,22.505a12.9772,12.9772,0,0,0,.5124-12H15.9986v5.5011l4.7619,2.7492-1.5875,2.75-1.1625,2.0135-3.1333,5.4269A12.99,12.99,0,0,0,27.2557,22.505Z"/><circle cx="15.999" cy="16.007" r="5.5" fill="#fff"/><circle cx="15.999" cy="16.007" r="4.25" fill="#4285f4"/></svg>