<svg viewBox="0 0 1024 1024" version="1.1" xmlns="http://www.w3.org/2000/svg"><path d="M126.673455 304.663273m69.818181 0l631.016728 0q69.818182 0 69.818181 69.818182l0 355.490909q0 69.818182-69.818181 69.818181l-631.016728 0q-69.818182 0-69.818181-69.818181l0-355.490909q0-69.818182 69.818181-69.818182Z" fill="#FFFDDE" /><path d="M821.364364 304.616727a75.962182 75.962182 0 0 1 75.915636 75.985455v343.202909a75.962182 75.962182 0 0 1-75.962182 75.962182H202.589091a75.962182 75.962182 0 0 1-75.869091-75.962182v-343.063273a75.962182 75.962182 0 0 1 75.915636-76.032H821.387636m0-19.758545H202.635636a95.837091 95.837091 0 0 0-95.720727 95.767272v343.20291a95.837091 95.837091 0 0 0 95.720727 95.720727H821.387636a95.837091 95.837091 0 0 0 95.697455-95.720727v-343.179637a95.837091 95.837091 0 0 0-95.720727-95.767273z" fill="#06B093" /><path d="M325.050182 300.497455c44.008727-41.472 85.922909-80.919273 127.650909-120.576 6.795636-6.423273 9.309091-0.372364 13.056 3.188363a58.600727 58.600727 0 0 0 91.810909 0.581818c9.565091-10.100364 13.474909-3.933091 19.223273 1.466182 40.098909 37.748364 80.128 75.566545 122.274909 115.339637z m430.545454 1.28a33.373091 33.373091 0 0 1-17.640727-9.728q-74.053818-70.818909-148.945454-140.590546a75.170909 75.170909 0 0 1-20.596364-29.742545 60.322909 60.322909 0 0 0-112.290909-1.163637 88.436364 88.436364 0 0 1-27.508364 37.236364c-45.125818 42.635636-90.763636 84.782545-135.168 128.139636a52.386909 52.386909 0 0 1-28.183273 15.802182z" fill="#07A083" /><path d="M530.571636 667.322182c-27.485091 30.603636-53.853091 59.741091-79.941818 89.181091a32.954182 32.954182 0 0 1-27.298909 11.031272c-71.749818-0.395636-143.476364 0-215.226182-0.256-34.583273 0-45.102545-12.823273-47.569454-47.848727a50.176 50.176 0 0 1 30.370909-54.923636c62.836364-34.234182 123.345455-72.471273 184.785454-109.172364 7.354182-4.398545 13.544727-7.773091 22.062546-0.442182 45.963636 39.493818 92.439273 78.359273 132.817454 112.430546z" fill="#FEFEFE" /><path d="M821.317818 799.790545a75.799273 75.799273 0 0 0 18.850909-2.443636c-65.163636-72.424727-126.929455-140.427636-187.810909-209.082182-12.753455-14.382545-20.084364-7.098182-29.742545 2.327273-45.521455 44.218182-91.485091 87.831273-136.983273 132.026182-25.460364 24.762182-50.525091 49.966545-77.917091 77.288727z" fill="#3FEA48" /><path d="M511.883636 116.596364a32.372364 32.372364 0 1 1-32.302545 33.326545 33.140364 33.140364 0 0 1 32.302545-33.326545z" fill="#06D8B5" /><path d="M729.157818 541.556364a44.544 44.544 0 0 1-42.123636-47.150546 45.521455 45.521455 0 0 1 47.150545-42.635636 44.962909 44.962909 0 0 1-5.026909 89.786182z" fill="#FF814A" /><path d="M530.571636 667.322182c-27.485091 30.603636-53.853091 59.741091-79.941818 89.181091a32.954182 32.954182 0 0 1-27.298909 11.031272c-71.749818-0.395636-143.476364 0-215.226182-0.256-34.583273 0-45.102545-12.823273-47.569454-47.848727a50.176 50.176 0 0 1 30.370909-54.923636c62.836364-34.234182 123.345455-72.471273 184.785454-109.172364 7.354182-4.398545 13.544727-7.773091 22.062546-0.442182 45.963636 39.493818 92.439273 78.359273 132.817454 112.430546z" fill="#33DEC1" /><path d="M412.578909 522.146909a32.581818 32.581818 0 0 0-45.824 0c-11.938909 7.889455-148.084364 88.971636-240.011636 143.406546v58.181818a75.962182 75.962182 0 0 0 75.962182 75.962182h533.59709c-76.846545-65.256727-309.899636-263.586909-323.723636-277.550546z" fill="#33DEC1" /></svg>