<?xml version="1.0"?>
<svg width="216" height="216" xmlns="http://www.w3.org/2000/svg" xmlns:svg="http://www.w3.org/2000/svg" enable-background="new 0 0 216 216" version="1.1" xml:space="preserve">
 <style type="text/css">.st0{fill:none;}
	.st1{fill:#FFFFFF;}
	.st2{fill-rule:evenodd;clip-rule:evenodd;fill:#353535;}
	.st3{fill-rule:evenodd;clip-rule:evenodd;}
	.st4{fill:#141313;}</style>
 <g class="layer">
  <title>Layer 1</title>
  <g id="Layer_1"/>
  <g id="Isolation_Mode">
   <rect class="st0" height="216" id="svg_1" width="216"/>
   <g id="svg_2">
    <g id="svg_11" transform="translate(-1 0) translate(1 0) matrix(1.90152 0 0 1.90152 -91.4703 -107.195)">
     <path class="st2" d="m155.56,102.99c0,9.8 -6.03,18.13 -14.42,21.17l5.08,8.41l-7.51,9.24l7.51,9.03l-12.12,16.26l-8.54,-9.11l0,-18.41l0,-16.04c-7.59,-3.45 -12.91,-11.35 -12.91,-20.55c0,-12.37 9.61,-22.4 21.45,-22.4c11.85,0.01 21.46,10.03 21.46,22.4zm-21.46,3.44c2.86,0 5.18,-2.42 5.18,-5.41c0,-2.99 -2.32,-5.41 -5.18,-5.41s-5.18,2.42 -5.18,5.41c0,2.99 2.32,5.41 5.18,5.41z" id="svg_7"/>
     <path class="st3" d="m155.62,103.06c0,9.68 -5.87,17.93 -14.09,21.09l4.68,8.42l-6.92,9.24l6.92,9.03l-12.11,16.39l0,-18.41l0,-23.3l0,-19.1c2.86,0 5.18,-2.42 5.18,-5.41c0,-2.99 -2.32,-5.41 -5.18,-5.41l0,-15c11.89,0 21.52,10.05 21.52,22.46z" id="svg_8"/>
     <path class="st3" d="m118.53,127.62c-6.93,-5.69 -11.58,-14.43 -12.22,-24.36l-37.14,0c-7.79,0 -14.1,6.41 -14.1,14.31l0,17.89c0,3.95 3.16,7.16 7.05,7.16l49.36,0c3.89,0 7.05,-3.2 7.05,-7.16l0,-7.84z" id="svg_9"/>
     <path class="st4" d="m85.07,98.97c-1.72,-0.33 -3.43,-0.64 -5.05,-1.32c-6.15,-2.58 -9.73,-7.34 -10.89,-14.06c-0.8,-4.6 -0.42,-9.15 1.44,-13.45c2.64,-6.11 7.39,-9.43 13.61,-10.55c3.72,-0.67 7.43,-0.52 11.02,0.82c5.4,2.01 9.01,5.87 10.69,11.55c1.69,5.72 1.44,11.45 -1.11,16.86c-2.64,5.66 -7.26,8.69 -13.1,9.88c-0.49,0.1 -0.97,0.2 -1.46,0.29c-1.71,-0.02 -3.43,-0.02 -5.15,-0.02z" id="svg_10"/>
    </g>
   </g>
  </g>
 </g>
</svg>