<svg viewBox="0 0 1050 1024" version="1.1" xmlns="http://www.w3.org/2000/svg"><path d="M772.419884 154.652142c15.831421-59.156557 142.933509-154.398614 142.93351-154.398614a584.241424 584.241424 0 0 1 0 162.032626c-10.535501 74.649941-66.199004 79.776842-87.326346 74.649941a66.7624 66.7624 0 0 1-55.578994-82.283953z m-103.383126-118.313114s29.212071 131.214877 82.143105 164.652417 15.915931 92.678606 2.64796 102.904239c-15.915931 7.746692-92.678606 30.986768-121.777997-36.02916-31.860031-66.875079-7.97205-198.061786 36.986932-231.527496z m-82.030425 177.469671a520.408682 520.408682 0 0 0 79.466975 187.751643c18.507551 38.592611-34.451652 64.311628-37.099612 64.311629-47.691453 12.873594-98.059036 0-103.270447-69.4667-2.64796-69.4667 2.64796-123.468185 60.903084-182.596572z m-92.678606 159.469175a316.825617 316.825617 0 0 0 45.071662 95.185717 982.731259 982.731259 0 0 1 63.551044 79.776843 46.113945 46.113945 0 0 1-23.803471 64.283458c-26.479602 10.310143-76.819015 17.972325-95.326566-10.310143a213.188963 213.188963 0 0 1 10.62001-228.935875z m-90.143325 149.299882a1808.021567 1808.021567 0 0 0 108.566367 151.750653c39.747572 61.720008 10.64818 97.749168-29.099392 102.904239-45.071662 2.563451-74.171054 10.310143-90.143325-48.846414-2.563451-18.056835-26.451432-72.03015 10.64818-205.808478z m-71.523094 174.87805c-21.155512 30.986768-31.775522 30.986768-60.903084 20.620285a44.508267 44.508267 0 0 1-39.747572-38.59261 70.621661 70.621661 0 0 1 29.127562-56.593107c39.747572-25.775357 76.819015-48.902754 92.763115-84.931913 10.535501 15.465214 13.183461 108.08748-21.240021 159.497345z m0-277.782289a260.908586 260.908586 0 0 1-23.803472 149.159032 61.043933 61.043933 0 0 1-55.607163 38.592611 49.888696 49.888696 0 0 1-47.691453-51.409865A68.368078 68.368078 0 0 1 245.306792 499.36585c50.254904-28.169789 90.002476-66.875079 87.326346-79.692333z m-26.479602-105.49586c2.816979 28.169789 2.816979 102.904239-23.803471 136.369948-23.887981 30.845919-68.875134 36.00099-87.326346 12.873594 0 0-23.803472-33.522049 34.451652-74.621771a247.894143 247.894143 0 0 0 76.790845-74.621771zM134.036126 231.837363a419.419988 419.419988 0 0 1 74.171054 92.650437 48.677395 48.677395 0 0 1-15.915931 74.537261c-7.887541 5.183241-66.199004 15.493384-74.171054-25.690847A274.373745 274.373745 0 0 1 134.036126 231.837363z m-132.398009 108.059311s76.819015 66.875079 124.454128 66.875079c47.691453 2.591621 50.339413 38.592611 42.254684 56.564936a56.621276 56.621276 0 0 1-82.143105 23.211907c-47.635113-28.169789-95.326566-110.622761-84.706555-146.651922z m34.479822 131.074028a232.710627 232.710627 0 0 0 132.398008 72.030151c39.719402 2.591621 31.775522 46.339303 18.507552 59.156557a69.325851 69.325851 0 0 1-87.326346 0 152.652087 152.652087 0 0 1-63.579214-131.186708z m161.52557 187.836153a30.028995 30.028995 0 0 1 18.592061 51.409865 51.071827 51.071827 0 0 1-58.311463 23.127397 148.933674 148.933674 0 0 1-100.650656-136.341779 334.657093 334.657093 0 0 0 140.370058 61.804517z m-39.719402 177.469671a468.435421 468.435421 0 0 1-84.706556-123.468185 1328.177382 1328.177382 0 0 0 145.665979 53.973316c50.283073 20.648455 42.254684 56.649446 21.155512 72.05832-21.155512 20.620286-47.691453 25.775357-82.114935-2.563451zM277.138654 1016.365987c0 2.591621-21.183681-123.468185-50.367583-159.469175a203.949272 203.949272 0 0 0 63.551044-10.310143c5.29592-5.155071 13.267971 156.877555 13.267971 156.877555z m31.775522-180.089461a45.635058 45.635058 0 0 1-47.719623-54.001485 93.777228 93.777228 0 0 1 39.747573-41.184232 250.429424 250.429424 0 0 0 76.819014-72.05832 228.738687 228.738687 0 0 1-5.32409 92.678606c-7.94388 33.465709-23.803472 71.973811-63.522874 74.565431z m92.650436 187.836153l-45.071662-5.155071s92.678606-162.060796 92.678605-221.301863a380.038623 380.038623 0 0 0 84.706556 33.46571c13.267971-2.535281-132.398008 192.991224-132.398008 192.991224z m312.684658-234.119116c-39.747572 33.465709-98.002696 59.156557-145.694149 38.592611a53.297241 53.297241 0 0 1-7.887541-95.242057 129.383841 129.383841 0 0 1 76.734505-20.535776 589.678193 589.678193 0 0 0 166.93417-30.986768c21.155512-25.690848-47.719623 79.776842-90.143325 108.059311z m13.26797-113.214382c-55.663503 20.563946-92.763115 18.056835-108.622706-7.718522a122.059696 122.059696 0 0 1 0-72.058321s13.29614-51.409865 87.326346-48.818244c68.846964-2.591621 148.342109-5.183241 196.033562-36.02916-26.535941 84.847404-124.538637 149.299882-174.652692 164.624247z m111.242497-167.215868c-60.987593 33.43754-98.059036 33.43754-121.890677 12.901764a76.959864 76.959864 0 0 1-21.155511-84.931914s18.535721-46.254794 108.622706-46.254794c84.706556 2.563451 161.52557-15.493384 174.793541-30.986768-2.816979 18.056835-90.143325 123.552695-140.370059 149.299882z m55.578994-151.750653c-47.691453 18.000495-116.566587 18.000495-119.214547-41.156062 0 0-5.211411-61.748177 111.242497-64.311628 105.946576-5.155071 145.694149-12.901763 164.2017-38.592611a354.235097 354.235097 0 0 1-156.22965 144.060301z m0 0" fill="#F2D814" /></svg>