<svg version="1.2" xmlns="http://www.w3.org/2000/svg" viewBox="0 0 3000 3000" width="3000" height="3000"><style>.a{fill:#cccfd7}</style><path class="a" d="m2208.5 1047.2c-13-13.7-31.7-21.5-51.2-22.2l-555.6-20.7-41.6 88.3 57.8 164.3-104.3 186.5 42.3 150.6 105.9 129.1 153.1-132.9c14.8-13 38.4-12.2 51.3 2.3l196.4 200.5c13.8 13.7 13 36.2-1.7 49.1-7.4 6.2-16.3 10-26.1 9.3l-538.4-20-26.9 72.9 29.3 65.2 619.2 22.3c40.6 1.5 74.8-28.5 75.8-66.9l34.4-827.8c0.7-18.4-5.9-36.9-19.7-49.9zm-398.5 381.4c-60.5-2.3-107.3-50.8-104.9-107.8 2.4-57.7 53.2-102.2 112.9-99.9 59.8 2.2 107.4 50.7 104.9 107.7-2.2 57-53.2 102.4-112.9 100zm-405.3 475.5l18.6-76.9-435.5 28.5c-20.3 1.5-37.3-12.3-38.9-31.5q-0.3-3.5 0.1-6.9 0.5-3.5 1.6-6.7 1.2-3.3 3-6.3 1.7-3 4.1-5.5l322.7-351c6.4-7.8 16.2-11.5 26.8-11.5 9.8 0 19.3 3.7 26.7 10.7l107.8 106.8-46.3-113.6 82.8-196.5-75.4-157.5 30.8-90.7-593.5 39.2c-40.5 2.3-70.6 35.4-68.1 73.7l60 827.9c0.7 18.5 9.8 35.3 25.2 46.9 14.7 12.3 33.3 18.5 52.7 17l530.3-34.5-35.5-61.6z"/></svg>