<svg viewBox="0 0 1024 1024" version="1.1" xmlns="http://www.w3.org/2000/svg"><path d="M512.004 584c-57.6 0-112 9.6-164.8 25.6l4.8 86.4h-96l3.2-49.6c-96 49.6-176 129.6-227.2 225.6h960c-89.6-171.2-270.4-288-480-288z" fill="#FFA000" /><path d="M992.004 880h-960a8 8 0 0 1-6.864-3.888 8.024 8.024 0 0 1-0.208-7.872c52.144-97.744 134.032-179.04 230.592-228.944a7.974 7.974 0 0 1 8.048 0.416 8.014 8.014 0 0 1 3.6 7.2l-3.2 49.6c-0.288 4.4-4.128 7.936-8.496 7.472a8.024 8.024 0 0 1-7.472-8.496l2.272-35.232C165.908 706.944 93.94 778.544 45.54 864h933.056c-93.424-168.128-270.992-272-466.592-272-53.264 0-106.416 8.272-162.48 25.248a7.986 7.986 0 0 1-9.984-5.344 7.992 7.992 0 0 1 5.328-9.968C402.484 584.48 457.14 576 512.004 576c206.096 0 392.736 112 487.088 292.304 1.296 2.464 1.2 5.456-0.256 7.84S994.804 880 992.004 880z" fill="#1A237E" /><path d="M214.404 172.8l-57.6-59.2c40-6.4 81.6 6.4 112 36.8s41.6 73.6 35.2 113.6" fill="#66BB6A" /><path d="M304.004 272a8.78 8.78 0 0 1-1.28-0.096c-4.352-0.688-7.328-4.8-6.64-9.168 6.368-39.792-5.952-79.68-32.96-106.672-24.208-24.208-55.792-36.8-88.96-36.048l45.952 47.216a8.006 8.006 0 0 1-0.16 11.312 8.006 8.006 0 0 1-11.312-0.16l-57.6-59.2c-2.064-2.144-2.784-5.264-1.84-8.096s3.376-4.912 6.336-5.376c43.136-6.864 87.584 7.696 118.928 39.04 30.624 30.624 44.624 75.664 37.44 120.528a8.014 8.014 0 0 1-7.904 6.72z" fill="#1A237E" /><path d="M168.004 251.2h-72c24-32 62.4-54.4 105.6-54.4s81.6 22.4 105.6 54.4" fill="#66BB6A" /><path d="M307.22 259.2a7.97 7.97 0 0 1-6.4-3.2c-24.048-32.064-61.136-51.2-99.2-51.2-32.688 0-64.656 14.112-88.256 38.4h54.64c4.416 0 8 3.584 8 8s-3.584 8-8 8h-72a8.012 8.012 0 0 1-7.152-4.416 7.988 7.988 0 0 1 0.752-8.384c27.056-36.08 68.928-57.616 112-57.616s84.944 21.536 112 57.616a7.994 7.994 0 0 1-6.384 12.8z" fill="#1A237E" /><path d="M400.004 172.8l59.2-57.6c-40-6.4-81.6 4.8-113.6 35.2s-43.2 72-36.8 112" fill="#66BB6A" /><path d="M308.788 270.4a7.986 7.986 0 0 1-7.888-6.736c-7.216-45.152 7.056-88.544 39.2-119.056 32.368-30.768 76.224-44.4 120.368-37.296 2.992 0.48 5.44 2.608 6.352 5.488s0.128 6.032-2.048 8.144l-59.2 57.6c-3.168 3.088-8.224 2.992-11.312-0.16a8.006 8.006 0 0 1 0.16-11.312l46.8-45.536c-33.328-1.04-65.472 11.264-90.112 34.672-28.24 26.832-40.784 65.088-34.416 104.944a8.012 8.012 0 0 1-6.64 9.168c-0.416 0.048-0.848 0.08-1.264 0.08z" fill="#1A237E" /><path d="M444.804 252.8h72c-24-33.6-62.4-54.4-105.6-54.4s-81.6 20.8-105.6 54.4" fill="#66BB6A" /><path d="M305.604 260.8c-1.616 0-3.232-0.48-4.64-1.488a7.98 7.98 0 0 1-1.856-11.152c26.224-36.704 67.072-57.744 112.112-57.744 45.024 0 85.888 21.04 112.096 57.744a8 8 0 0 1 0.608 8.32 8.05 8.05 0 0 1-7.12 4.32h-72c-4.416 0-8-3.584-8-8s3.584-8 8-8h55.152c-22.896-24.592-54.464-38.4-88.752-38.4-39.792 0-75.92 18.608-99.088 51.04a7.984 7.984 0 0 1-6.512 3.36zM305.604 448h-32c-4.416 0-8-3.584-8-8s3.584-8 8-8h32c4.416 0 8 3.584 8 8s-3.584 8-8 8zM305.604 512h-36.8c-4.416 0-8-3.584-8-8s3.584-8 8-8h36.8c4.416 0 8 3.584 8 8s-3.584 8-8 8zM305.604 576h-40c-4.416 0-8-3.584-8-8s3.584-8 8-8h40c4.416 0 8 3.584 8 8s-3.584 8-8 8zM432.004 768h-64c-4.416 0-8-3.584-8-8 0-13.232-10.768-24-24-24s-24 10.768-24 24c0 4.416-3.584 8-8 8s-8-3.584-8-8c0-22.064 17.952-40 40-40 19.328 0 35.472 13.76 39.2 32h56.8c4.416 0 8 3.584 8 8s-3.584 8-8 8z" fill="#1A237E" /><path d="M300.804 768c-4.416 0-8-3.584-8-8 0-13.232-10.768-24-24-24s-24 10.768-24 24c0 4.416-3.584 8-8 8h-64c-4.416 0-8-3.584-8-8s3.584-8 8-8h56.8c3.712-18.24 19.872-32 39.2-32 22.048 0 40 17.936 40 40 0 4.416-3.584 8-8 8zM351.988 704a8.008 8.008 0 0 1-7.984-7.536l-22.4-384a7.99 7.99 0 0 1 7.52-8.448c4.608-0.16 8.208 3.104 8.448 7.52l22.4 384c0.256 4.4-3.104 8.208-7.52 8.448-0.144 0.016-0.304 0.016-0.464 0.016zM256.004 704c-0.176 0-0.352 0-0.544-0.016a8.024 8.024 0 0 1-7.456-8.512l25.6-384c0.304-4.4 4.176-7.536 8.512-7.456a8.024 8.024 0 0 1 7.456 8.512l-25.6 384a7.98 7.98 0 0 1-7.968 7.472zM823.956 191.936h-0.256c-30.88-0.128-55.888-25.36-55.76-56.24 0.144-30.784 25.248-55.744 56-55.744h0.256c14.96 0.048 28.992 5.936 39.52 16.56s16.304 24.72 16.224 39.68c-0.064 14.96-5.952 28.992-16.576 39.52-10.56 10.464-24.544 16.224-39.408 16.224zM783.94 135.744c-0.096 22.048 17.776 40.08 39.824 40.176 11.008-0.128 20.752-4.064 28.336-11.584 7.6-7.52 11.792-17.552 11.84-28.224a39.722 39.722 0 0 0-11.584-28.336 39.73 39.73 0 0 0-28.24-11.84h-0.192c-21.952 0-39.872 17.824-39.984 39.808zM824.004 64c-4.416 0-8-3.584-8-8V8c0-4.416 3.584-8 8-8s8 3.584 8 8v48c0 4.416-3.584 8-8 8zM824.004 272c-4.416 0-8-3.584-8-8v-48c0-4.416 3.584-8 8-8s8 3.584 8 8v48c0 4.416-3.584 8-8 8zM952.004 144h-48c-4.416 0-8-3.584-8-8s3.584-8 8-8h48c4.416 0 8 3.584 8 8s-3.584 8-8 8zM744.004 144h-48c-4.416 0-8-3.584-8-8s3.584-8 8-8h48c4.416 0 8 3.584 8 8s-3.584 8-8 8zM880.004 88a7.91 7.91 0 0 1-5.84-2.544c-3.008-3.232-2.848-8.304 0.384-11.312l24-22.4c3.2-3.008 8.288-2.832 11.296 0.384 3.008 3.232 2.848 8.304-0.384 11.312l-24 22.4a7.896 7.896 0 0 1-5.456 2.16zM744.004 222.4a8.036 8.036 0 0 1-5.664-2.336 8.006 8.006 0 0 1 0-11.312l22.4-22.4c3.12-3.12 8.192-3.12 11.312 0s3.12 8.192 0 11.312l-22.4 22.4a7.972 7.972 0 0 1-5.648 2.336zM902.404 224a8.036 8.036 0 0 1-5.664-2.336l-22.4-22.4c-3.12-3.12-3.12-8.192 0-11.312s8.192-3.12 11.312 0l22.4 22.4a8.006 8.006 0 0 1 0 11.312 7.972 7.972 0 0 1-5.648 2.336zM768.004 86.4a8.036 8.036 0 0 1-5.664-2.336l-22.4-22.4c-3.12-3.12-3.12-8.192 0-11.312s8.192-3.12 11.312 0l22.4 22.4a8.006 8.006 0 0 1 0 11.312 7.972 7.972 0 0 1-5.648 2.336z" fill="#1A237E" /><path d="M696.004 384c0-17.6-14.4-32-32-32s-32 14.4-32 32c-17.6 0-32 14.4-32 32s14.4 32 32 32h64c17.6 0 32-14.4 32-32s-14.4-32-32-32zM952.004 480c0-17.6-14.4-32-32-32s-32 14.4-32 32c-17.6 0-32 14.4-32 32s14.4 32 32 32h64c17.6 0 32-14.4 32-32s-14.4-32-32-32z" fill="#4FC3F7" /><path d="M248.004 976h-16c-4.416 0-8-3.584-8-8s3.584-8 8-8h16c4.416 0 8 3.584 8 8s-3.584 8-8 8zM488.004 976h-208c-4.416 0-8-3.584-8-8s3.584-8 8-8h208c4.416 0 8 3.584 8 8s-3.584 8-8 8zM792.004 976h-16c-4.416 0-8-3.584-8-8s3.584-8 8-8h16c4.416 0 8 3.584 8 8s-3.584 8-8 8zM744.004 976h-208c-4.416 0-8-3.584-8-8s3.584-8 8-8h208c4.416 0 8 3.584 8 8s-3.584 8-8 8zM616.004 1024h-208c-4.416 0-8-3.584-8-8s3.584-8 8-8h208c4.416 0 8 3.584 8 8s-3.584 8-8 8z" fill="#1A237E" /><path d="M307.204 264c-36.8-16-80-16-118.4 4.8s-60.8 59.2-65.6 99.2l184-104z" fill="#66BB6A" /><path d="M123.204 376a7.96 7.96 0 0 1-4.432-1.344 7.98 7.98 0 0 1-3.504-7.616c5.424-45.216 31.488-84.56 69.728-105.28 38.816-21.008 84.544-22.88 125.408-5.104a8.008 8.008 0 0 1 0.752 14.304l-184 104a7.936 7.936 0 0 1-3.952 1.04z m129.472-115.44c-20.736 0-41.312 5.104-60.064 15.264-29.008 15.712-50.08 43.712-58.432 76.784l153.936-87.008a127.82 127.82 0 0 0-35.44-5.04z" fill="#1A237E" /><path d="M307.204 264c36.8-16 80-16 118.4 6.4s59.2 59.2 64 99.2l-182.4-105.6z" fill="#66BB6A" /><path d="M489.604 377.6a7.94 7.94 0 0 1-4-1.072l-182.4-105.6a7.996 7.996 0 0 1 0.816-14.256c41.472-18.032 87.264-15.552 125.616 6.816 38.336 22.368 62.448 59.712 67.92 105.168a8.016 8.016 0 0 1-3.536 7.632 8.178 8.178 0 0 1-4.416 1.312z m-163.536-111.92l152.592 88.336c-8.08-32.848-27.936-59.712-57.088-76.704-29.152-17.008-63.184-20.992-95.504-11.632z" fill="#1A237E" /></svg>