<svg class="icon" style="width: 1.1689453125em;height: 1em;vertical-align: middle;fill: currentColor;overflow: hidden;" viewBox="0 0 1197 1024" version="1.1" xmlns="http://www.w3.org/2000/svg"><path d="M0.000499 874.365319V411.495373a149.634681 149.634681 0 0 1 74.318558-129.184608l448.904043-261.860692a149.634681 149.634681 0 0 1 149.634681 0l448.904043 261.860692A149.634681 149.634681 0 0 1 1197.077946 411.495373v462.869946a149.634681 149.634681 0 0 1-149.634681 149.634681H149.63518a149.634681 149.634681 0 0 1-149.634681-149.634681z" fill="#FFA300" /><path d="M598.539223 674.852411L20.450572 335.680468A149.634681 149.634681 0 0 0 0.000499 411.495373v462.869946a149.634681 149.634681 0 0 0 149.634681 149.634681h897.808085a149.634681 149.634681 0 0 0 149.634681-149.634681V411.495373a149.634681 149.634681 0 0 0-20.450073-75.814905z" fill="#FFD400" /><path d="M56.861678 990.581588a149.634681 149.634681 0 0 0 92.773502 33.418412h897.808085a149.634681 149.634681 0 0 0 149.634681-149.634681V411.495373a149.634681 149.634681 0 0 0-19.95129-74.318559z" fill="#FFEC00" /></svg>